<svg width="347" height="72" viewBox="0 0 347 72" fill="none" xmlns="http://www.w3.org/2000/svg">
<path d="M-1.41561e-07 71L15.7 0.999995H36L20.5 71H-1.41561e-07ZM94.1 0.999995H114.4L98.9 71H78.4L85.1 41.2L63.5 71H51.3C48.8333 71 47 70.5 45.8 69.5C44.6 68.5 43.7667 66.9667 43.3 64.9L34 29.1L40.1 0.999995C41.8333 0.999995 43.3 1.6 44.5 2.8C45.7 4 46.5333 5.4 47 7L58 49.8L94.1 0.999995ZM149.255 15.2C144.722 15.2 141.289 16.3 138.955 18.5C136.622 20.7 134.989 23.7333 134.055 27.6L124.355 71H103.855L113.755 27.6C117.822 9.6 129.222 0.733328 147.955 0.999995H168.755L165.555 15.2H149.255ZM172.655 0.999995H192.955L177.455 71H156.955L162.555 45.9H134.355L136.755 34.3C137.222 31.9667 138.089 30.3667 139.355 29.5C140.622 28.6333 142.255 28.2333 144.255 28.3L166.555 28.4L172.655 0.999995ZM259.118 0.999995C262.451 0.999995 264.951 1.1 266.618 1.3C268.285 1.5 269.518 1.96667 270.318 2.7C271.118 3.36666 271.518 4.43333 271.518 5.9C271.518 6.96666 271.251 8.63333 270.718 10.9L266.718 28.3L264.018 39.9C263.485 42.2333 262.485 43.8333 261.018 44.7C259.551 45.5667 257.685 45.9667 255.418 45.9L212.918 45.8L215.518 34.3C216.051 31.9667 217.051 30.3667 218.518 29.5C219.985 28.6333 221.851 28.2333 224.118 28.3H248.518L251.518 15.6L215.218 15.5L202.918 71H182.418L198.118 0.999995H253.318H259.118ZM229.818 48.9H250.718L254.518 71H239.418C237.085 71 235.418 70.3667 234.418 69.1C233.418 67.8333 232.751 66.0333 232.418 63.7L229.818 48.9ZM317.283 0.999995L303.483 18.6H273.583L276.683 7C277.349 4.66666 278.416 3.06667 279.883 2.2C281.349 1.33333 283.216 0.933329 285.483 0.999995H317.283ZM291.383 71H266.883L321.983 0.999995H346.283L291.383 71ZM296.283 71L310.083 53.4H339.983L336.883 65C336.216 67.3333 335.149 68.9333 333.683 69.8C332.216 70.6667 330.349 71.0667 328.083 71H296.283Z" fill="black"/>
</svg>
